<svg width="24" height="24" viewBox="0 0 24 24" fill="none" xmlns="http://www.w3.org/2000/svg">
<path d="M18.71 9.49C18.61 9.49 18.51 9.47 18.41 9.43C18.03 9.26 17.86 8.82 18.02 8.44C18.21 8.01 18.1 7.38 17.75 6.86C17.4 6.33 16.87 5.97 16.39 6C15.95 6 15.64 5.67 15.63 5.26C15.63 4.84 15.96 4.51 16.37 4.5C17.4 4.48 18.37 5.07 19 6.02C19.64 6.98 19.79 8.13 19.4 9.03C19.28 9.32 19 9.49 18.71 9.49Z" fill="white"/>
<path d="M21.82 10.48C21.75 10.48 21.69 10.47 21.62 10.45C21.22 10.34 20.99 9.92998 21.1 9.52998C21.48 8.16998 21.16 6.54998 20.25 5.18998C19.34 3.82998 17.96 2.91998 16.55 2.74998C16.14 2.69998 15.85 2.32998 15.9 1.91998C15.95 1.50998 16.33 1.20998 16.73 1.26998C18.56 1.48998 20.34 2.64998 21.49 4.36998C22.64 6.08998 23.03 8.16998 22.54 9.94998C22.45 10.26 22.15 10.48 21.82 10.48Z" fill="white"/>
<path d="M17.12 11.78C17.12 12.08 16.87 12.33 16.57 12.33H3.43C3.13 12.33 2.88 12.08 2.88 11.78C2.88 11.48 3.13 11.23 3.43 11.23H4.17L4.45 9.90996C4.71 8.62996 5.26 7.45996 7.44 7.45996H12.57C14.75 7.45996 15.29 8.63996 15.56 9.90996L15.84 11.23H16.58C16.87 11.23 17.12 11.48 17.12 11.78Z" fill="white"/>
<path d="M17.4299 15.9099C17.3199 14.7099 16.9999 13.4199 14.6599 13.4199H5.33992C2.99992 13.4199 2.67992 14.7099 2.56992 15.9099L2.15992 20.3599C2.10992 20.9099 2.28992 21.4699 2.66992 21.8899C3.05992 22.3099 3.59992 22.5499 4.18992 22.5499H5.55992C6.73992 22.5499 6.96993 21.8699 7.11993 21.4299L7.26993 20.9899C7.43993 20.4899 7.47993 20.3599 8.13993 20.3599H11.8799C12.5399 20.3599 12.5599 20.4299 12.7499 20.9899L12.8999 21.4299C13.0499 21.8799 13.2699 22.5499 14.4599 22.5499H15.8299C16.4099 22.5499 16.9599 22.3099 17.3499 21.8899C17.7299 21.4699 17.9099 20.9199 17.8599 20.3599L17.4299 15.9099ZM7.80993 17.4299H5.61992C5.31992 17.4299 5.06992 17.1799 5.06992 16.8799C5.06992 16.5799 5.31992 16.3299 5.61992 16.3299H7.80993C8.10993 16.3299 8.35993 16.5799 8.35993 16.8799C8.35993 17.1799 8.10993 17.4299 7.80993 17.4299ZM14.3799 17.4299H12.1899C11.8899 17.4299 11.6399 17.1799 11.6399 16.8799C11.6399 16.5799 11.8899 16.3299 12.1899 16.3299H14.3799C14.6799 16.3299 14.9299 16.5799 14.9299 16.8799C14.9299 17.1799 14.6799 17.4299 14.3799 17.4299Z" fill="white"/>
</svg>
